<?xml version="1.0" encoding="UTF-8"?>
<svg id="Layer_1" data-name="Layer 1" xmlns="http://www.w3.org/2000/svg" viewBox="0 0 1253.31 1254">
  <defs>
    <style>
      .cls-1 {
        fill: #f70102;
      }

      .cls-2 {
        fill: #f70202;
      }

      .cls-3 {
        fill: #f80102;
      }

      .cls-4 {
        fill: #fa0101;
      }

      .cls-5 {
        fill: #1b0000;
      }
    </style>
  </defs>
  <path class="cls-4" d="M141.31,1254c-41.96,0-79.01-16.28-106.12-51.49C15.52,1176.95,0,1143.51,0,1107.38L.1,144.04c0-35.16,16.23-68.78,36.26-93.66C60.43,20.47,94.82.12,131.53.12L1117.81,0c71.22,0,135.04,67.3,135.07,148.33l.42,960.29c-4.95,78.59-60.19,141.53-130.51,145.25l-981.49.13ZM1180.26,147.93c-.05-32.9-30.55-66.08-60.75-66.09l-982.4-.09c-34.77.1-64.26,30.77-64.24,70.08l.09,172.26,1107.54.07-.24-176.24ZM72.66,408.76l-.23,687.6c-.01,39.92,25.58,76.25,63.19,76.26l977.67.14c34.88.82,63.26-27.26,67.26-65.79l-.03-700.92-1105.02-.06c-1.35.36-2.04,1.12-2.84,2.76Z"/>
  <path class="cls-5" d="M72.66,408.76c.79-1.64,1.48-2.4,2.84-2.76l-2.84,2.76Z"/>
  <path class="cls-3" d="M737.17,1071.06c-7.68,16.4-22.21,24.21-37.15,22.53-16.07-1.8-26.48-14.07-31.51-31.94l-112.93-401.82-55.02,145.4c-6.72,17.75-18.93,29.43-37.25,29.13l-224.42-.35c-20.83-.03-34.55-21.11-34.33-41.5s15.58-39.56,35.83-39.57l200.62-.07,85-223.75c6.8-17.91,17.94-30.52,35.31-30.41,16.43.1,29.45,12.08,34.66,30.67l114.34,408.15,59.35-156.21c6.31-16.61,16.9-28.05,34.1-28.38l204.63-.4c22.5-.04,40.3,14.91,40.73,39.92.42,24.55-16.67,41.96-38.99,41.96l-180.75-.03-63.9,164.57-28.35,72.09Z"/>
  <path class="cls-2" d="M181.32,154.72c24.58-8.79,49.33,6.38,56.75,32.96,7.18,25.73-6.01,54.72-30.99,62.85-21.69,7.06-46.64-5.95-54.34-32.33-7.34-25.16,3.27-54.43,28.57-63.48Z"/>
  <path class="cls-2" d="M506.35,154.43c24.72-8.49,49.64,8.2,55.97,35.55,5.86,25.34-7.56,53.53-31.84,60.79-22.58,6.75-46.77-7.67-54.27-34.53-6.84-24.5,5.23-53.26,30.15-61.81Z"/>
  <path class="cls-1" d="M343.84,154.66c24.45-8.78,49.62,6.68,56.57,33.09,6.8,25.88-6.12,54.7-30.84,62.73-22.02,7.16-46.31-6.18-54.49-32.43-7.76-24.9,3.49-54.31,28.76-63.39Z"/>
</svg>